{"title":"Soulfly (1998) - Custom Remaster by MC Lurken 16-bit 44.1kHz fla","uid":7622543,"size":564292799,"categoryP":"audio","categoryS":"flac","magnet":"?xt=urn:btih:a4541d844915e142f695f7b4d40a09b0def2d2e9&amp;dn=Soulfly+%281998%29+-+Custom+Remaster+by+MC+Lurken+16-bit+44.1kHz+fla&amp;tr=udp%3A%2F%2Ftracker.openbittorrent.com%3A80&amp;tr=udp%3A%2F%2Fopen.demonii.com%3A1337&amp;tr=udp%3A%2F%2Ftracker.coppersurfer.tk%3A6969&amp;tr=udp%3A%2F%2Fexodus.desync.com%3A6969","seeders":1,"leechers":7,"uploader":"beavis39","files":-1,"time":1347363883,"description":"Soulfly (-1998-) - Custom Remaster by MC Lurken (a.k.a. Beavis39)\n\n\n!!!!!!!!!!This is a custom remaster intended to increase the dynamic range and is NOT an official remaster!!!!!!!!!!\n\n\n1 - Eye For An Eye\n2 - No Hope = No Fear\n3 - Bleed\n4 - Tribe\n5 - Bumba\n6 - First Commandment\n7 - Bumbklaatt\n8 - Soulfly\n9 - Umbabarauma\n10 - Quilombo\n11 - Fire\n12 - The Song Remains Insane\n13 - No\n14 - Prejudice\n15 - Karmageddon\n16 - Cangaceiro\n17 - Ain't No Feeble Bastard\n18 - The Possibility of Life's Destruction\n\n\nSetup:\n-HP G72-250US\n-Intel Core i3 M350 2.27GHz\n-8Gb PC3-10700 RAM\n-Win7 64-bit SP1\n-SB X-Fi Surround 5.1\n\nProcess:\n-Original 16-bit/44.1kHz files joined in Wavelab 6\n-Remove DC offset and save as 64-bit float/44.1kHz\n-Resample to 384kHz in Wavelab w/crystal resampler ultra(slow) relax background priority\n-Create new 64-bit/384kHz master recording in Wavelab\n\nAs reported in Wavelab:\n-Original 16-bit/44.1kHz: Apparent Bit Resolution = 16, Peak = 0db\n-With DC Offset Removed: Apparent Bit Resolution = no offset (16), Peak = 0db\n-64-bit/384kHz Recording: Apparent Bit Resolution = 39, Peak = 1.748db\n\n-Resample new 64-bit/384kHz master recording to 64-bit/44.1kHz in Wavelab w/crystal resampler ultra(slow) relax background priority\n-Apply MBIT+ 16-bit Dither in Wavelab w/Izotope Ozone 5 VST Plugin\n-Flac encode level 0 with Trader's Little Helper\n-Tag and pic with xrecode II\n\n\nfoobar2000 1.1.14a / Dynamic Range Meter 1.1.1\nlog date: 2012-09-10 00:04:17\n\n-----------------------------------------------------------------------------------\nAnalyzed: ? / ?\n-----------------------------------------------------------------------------------\n\nDR         Peak         RMS     Duration Track\n-----------------------------------------------------------------------------------\nDR7      0.00 dB    -8.28 dB      3:35 ?-01 - Eye For An Eye\nDR7      0.00 dB    -9.27 dB      4:36 ?-02 - No Hope = No Fear\nDR7      0.00 dB    -8.73 dB      4:07 ?-03 - Bleed\nDR7      0.00 dB    -8.89 dB      6:03 ?-04 - Tribe\nDR7      0.00 dB    -8.74 dB      3:59 ?-05 - Bumba\nDR7     -0.09 dB    -9.98 dB      4:30 ?-06 - First Commandment\nDR7     -0.13 dB    -8.95 dB      3:52 ?-07 - Bumbklaatt\nDR7     -1.47 dB   -11.59 dB      4:49 ?-08 - Soulfly\nDR7      0.00 dB    -8.48 dB      4:11 ?-09 - Umbabarauma\nDR6     -0.23 dB    -8.70 dB      3:44 ?-10 - Quilombo\nDR7      0.00 dB    -9.38 dB      4:21 ?-11 - Fire\nDR7     -0.30 dB   -10.04 dB      3:40 ?-12 - The Song Remains Insane\nDR7      0.00 dB    -8.76 dB      4:00 ?-13 - No\nDR7     -0.26 dB    -9.17 dB      6:52 ?-14 - Prejudice\nDR9     -0.57 dB   -10.70 dB      3:35 ?-15 - Karmageddon\nDR7     -0.25 dB    -8.80 dB      2:19 ?-16 - Cangaceiro\nDR7     -0.21 dB    -8.79 dB      1:39 ?-17 - Ain't No Feeble Bastard\nDR7     -0.42 dB    -8.17 dB      1:29 ?-18 - The Possibility of Life's Destruction\n-----------------------------------------------------------------------------------\n\nNumber of tracks:  18\nOfficial DR value: DR7\n\nSamplerate:        44100 Hz\nChannels:          2\nBits per sample:   16\nBitrate:           1411 kbps\nCodec:             PCM\n\n\n\nMC Lurken - Fighting The Loudness War One CD At A Time\n\n\nenjoy :)\n\n","torrent":{"xt":"urn:btih:a4541d844915e142f695f7b4d40a09b0def2d2e9","amp;dn":"Soulfly+%281998%29+-+Custom+Remaster+by+MC+Lurken+16-bit+44.1kHz+fla","amp;tr":["udp%3A%2F%2Ftracker.openbittorrent.com%3A80","udp%3A%2F%2Fopen.demonii.com%3A1337","udp%3A%2F%2Ftracker.coppersurfer.tk%3A6969","udp%3A%2F%2Fexodus.desync.com%3A6969"],"infoHash":"a4541d844915e142f695f7b4d40a09b0def2d2e9","infoHashBuffer":{"type":"Buffer","data":[164,84,29,132,73,21,225,66,246,149,247,180,212,10,9,176,222,242,210,233]},"announce":[],"urlList":[]}}